<mxfile host="app.diagrams.net" modified="2024-05-06T06:07:36.570Z" agent="Mozilla/5.0 (Windows NT 10.0; Win64; x64) AppleWebKit/537.36 (KHTML, like Gecko) Chrome/124.0.0.0 Safari/537.36 Edg/124.0.0.0" version="24.3.1" etag="BNKwuqyJB6W_oGEfvRr8" type="device">
  <diagram id="4jABH2bIoWaXezKNhNhB" name="PÃ¡gina-1">
    <mxGraphModel dx="1386" dy="785" grid="1" gridSize="10" guides="1" tooltips="1" connect="1" arrows="1" fold="1" page="1" pageScale="1" pageWidth="827" pageHeight="1169" math="0" shadow="0">
      <root>
        <mxCell id="0" />
        <mxCell id="1" parent="0" />
        <mxCell id="1iVB6hJaeyFJXDfJ-2N_-1" value="AreadelTriangulo" style="rounded=0;whiteSpace=wrap;html=1;" vertex="1" parent="1">
          <mxGeometry x="250" y="130" width="280" height="40" as="geometry" />
        </mxCell>
        <mxCell id="1iVB6hJaeyFJXDfJ-2N_-2" value="&lt;div style=&quot;&quot;&gt;&lt;span style=&quot;background-color: initial;&quot;&gt;duoble base&lt;/span&gt;&lt;/div&gt;&lt;div&gt;double altura&lt;/div&gt;" style="rounded=0;whiteSpace=wrap;html=1;align=left;" vertex="1" parent="1">
          <mxGeometry x="250" y="170" width="280" height="80" as="geometry" />
        </mxCell>
        <mxCell id="1iVB6hJaeyFJXDfJ-2N_-3" value="sacar el area();" style="rounded=0;whiteSpace=wrap;html=1;align=left;" vertex="1" parent="1">
          <mxGeometry x="250" y="250" width="280" height="60" as="geometry" />
        </mxCell>
      </root>
    </mxGraphModel>
  </diagram>
</mxfile>
